<svg version="1.1" id="Layer_1" xmlns="http://www.w3.org/2000/svg" xmlns:xlink="http://www.w3.org/1999/xlink" x="0px" y="0px"
	 width="100%" viewBox="0 0 1169 1168" enable-background="new 0 0 1169 1168" xml:space="preserve">
<path fill="#FEFFFF" opacity="1.000000" stroke="none" 
	d="
M781.000000,1169.000000 
	C520.666687,1169.000000 260.833344,1169.000000 1.000000,1169.000000 
	C1.000000,779.666687 1.000000,390.333344 1.000000,1.000000 
	C390.666656,1.000000 780.333313,1.000000 1170.000000,1.000000 
	C1170.000000,390.333344 1170.000000,779.666687 1170.000000,1169.000000 
	C1040.500000,1169.000000 911.000000,1169.000000 781.000000,1169.000000 
M583.454773,796.874451 
	C590.770386,794.086975 598.108948,791.358032 605.398071,788.502991 
	C684.596741,757.481567 760.205933,719.377136 831.813354,673.433228 
	C883.098816,640.527954 931.635742,604.029846 976.053467,562.204651 
	C1015.771790,524.804688 1051.702148,484.247986 1079.280029,436.886719 
	C1097.384033,405.795532 1111.141479,373.042664 1114.149048,336.686768 
	C1117.179688,300.051514 1107.559326,267.390503 1082.627563,239.807556 
	C1060.819946,215.681076 1032.997314,201.499039 1002.502625,191.978287 
	C967.703552,181.113693 931.885681,176.853714 895.559143,176.937027 
	C876.418152,176.980911 857.262085,177.706696 838.150024,178.784805 
	C832.113525,179.125320 828.392395,178.609787 824.761902,172.765060 
	C806.945923,144.082779 770.146484,132.602112 738.783691,145.233795 
	C706.854553,158.093582 688.353577,191.586334 694.854797,224.759247 
	C702.491699,263.726746 737.879089,288.337769 777.281311,282.084717 
	C810.219299,276.857574 836.147827,247.440048 836.545166,214.411118 
	C836.603455,209.565430 837.993408,207.876068 842.750122,208.102051 
	C864.694397,209.144730 886.734924,209.101028 908.572693,211.198608 
	C933.938538,213.635086 958.383484,220.417786 980.711609,233.267746 
	C1005.718811,247.659515 1022.529114,268.091034 1026.568481,297.482208 
	C1029.704224,320.297394 1024.659790,341.908569 1016.182617,362.871490 
	C1001.168213,400.000336 977.645447,431.606293 951.348389,461.293152 
	C919.971924,496.714111 884.569702,527.773804 846.976807,556.398376 
	C841.628052,560.471191 836.169861,564.400330 829.504456,569.325378 
	C829.504456,565.451538 829.504395,563.198547 829.504456,560.945618 
	C829.506226,486.946930 829.509766,412.948212 829.502869,338.949524 
	C829.502563,336.050903 830.384766,332.915222 825.381165,332.937439 
	C790.715881,333.091431 756.048828,332.916260 721.384216,333.137024 
	C710.083740,333.209015 700.127136,343.048279 699.128418,354.337708 
	C698.820862,357.815063 698.850342,361.328766 698.849670,364.825806 
	C698.832642,458.157501 698.801453,551.489258 698.923218,644.820740 
	C698.928955,649.226257 697.685730,651.731628 693.698547,653.820496 
	C614.901794,695.101379 533.067749,728.678711 446.974091,751.512390 
	C400.690674,763.787598 353.777618,772.512085 305.971436,775.923950 
	C276.491791,778.027771 247.030411,777.522522 217.799591,772.845337 
	C192.790329,768.843506 168.575134,762.112854 147.219009,747.821411 
	C120.918961,730.221497 106.373077,706.058594 106.451088,673.738525 
	C106.505470,651.207153 112.994667,630.377930 122.340332,610.275940 
	C139.761566,572.803955 165.141022,540.925232 193.218750,511.084290 
	C226.202789,476.028900 263.011078,445.312744 301.705597,416.786255 
	C304.353210,414.834381 306.331909,415.186646 308.915710,416.669067 
	C335.018646,431.646149 351.256927,453.786469 354.959778,483.687042 
	C357.139465,501.288086 357.313385,519.208923 357.367340,536.988953 
	C357.563080,601.485779 357.322693,665.983948 357.260956,730.481567 
	C357.255280,736.422607 357.528076,736.626465 363.038055,735.699402 
	C403.516296,728.889099 443.200745,718.837524 482.401794,706.737671 
	C486.849976,705.364624 488.228699,703.382263 488.209717,698.695129 
	C487.920990,627.532715 487.803131,556.369507 487.761200,485.206390 
	C487.747162,461.346283 483.177307,438.500519 472.979248,416.919128 
	C454.960052,378.786285 425.724854,352.238251 387.619995,334.963318 
	C383.711670,333.191437 380.432922,333.307007 376.446930,335.660675 
	C315.319611,371.755768 257.473175,412.364258 204.551880,459.805573 
	C166.962509,493.502533 132.561386,530.097778 103.969780,571.841309 
	C79.656265,607.338928 60.000675,644.980530 53.683144,688.251648 
	C49.873653,714.344360 52.267113,739.756226 63.517948,763.964844 
	C77.830910,794.762329 102.085617,815.319763 131.950775,829.854614 
	C173.723068,850.184326 218.616699,856.426270 264.376312,857.925293 
	C292.697266,858.853088 320.973541,857.405762 349.139526,854.082031 
	C357.256927,853.124084 357.275696,853.285522 357.274689,861.490417 
	C357.268280,913.322815 357.248871,965.155273 357.263062,1016.987671 
	C357.267731,1034.077026 367.114258,1043.884888 384.303925,1043.903809 
	C416.803314,1043.939453 449.303497,1043.809448 481.801392,1044.033691 
	C486.804382,1044.068237 488.237854,1042.850342 488.223907,1037.687012 
	C488.040009,969.522095 488.142761,901.356384 488.011810,833.191162 
	C488.003235,828.728027 489.447968,827.001038 493.733948,825.658569 
	C523.457275,816.347900 553.067383,806.675720 583.454773,796.874451 
M740.090088,999.400208 
	C757.195374,1017.836670 777.089844,1032.326782 800.304810,1042.186768 
	C803.713806,1043.634644 806.360535,1043.346558 809.541321,1041.249756 
	C840.274231,1020.990173 871.125366,1000.910034 901.936890,980.769714 
	C904.398254,979.160828 906.815735,977.484802 910.085266,975.278809 
	C907.740845,974.203369 906.286438,973.553955 904.846924,972.872986 
	C896.271606,968.816650 887.475647,965.161682 879.171997,960.609009 
	C860.198730,950.206665 845.583130,935.563965 837.593262,915.082703 
	C832.085754,900.964661 829.615234,886.171387 829.570374,871.088684 
	C829.422668,821.439819 829.533691,771.790161 829.526794,722.140808 
	C829.526489,720.230896 829.334106,718.320984 829.184875,715.547852 
	C826.810608,716.802673 825.199585,717.545654 823.696045,718.464661 
	C784.858154,742.204590 744.768921,763.616089 703.545959,782.901001 
	C700.223999,784.455139 698.932312,786.363708 698.964294,790.106262 
	C699.141052,810.765991 698.904541,831.429260 699.084045,852.088928 
	C699.251770,871.392212 698.782471,890.771912 700.337158,909.976807 
	C703.087402,943.950928 717.186462,973.364502 740.090088,999.400208 
z"/>
<path fill="#0E4F95" opacity="1.000000" stroke="none" 
	d="
M583.084290,796.997009 
	C553.067383,806.675720 523.457275,816.347900 493.733948,825.658569 
	C489.447968,827.001038 488.003235,828.728027 488.011810,833.191162 
	C488.142761,901.356384 488.040009,969.522095 488.223907,1037.687012 
	C488.237854,1042.850342 486.804382,1044.068237 481.801392,1044.033691 
	C449.303497,1043.809448 416.803314,1043.939453 384.303925,1043.903809 
	C367.114258,1043.884888 357.267731,1034.077026 357.263062,1016.987671 
	C357.248871,965.155273 357.268280,913.322815 357.274689,861.490417 
	C357.275696,853.285522 357.256927,853.124084 349.139526,854.082031 
	C320.973541,857.405762 292.697266,858.853088 264.376312,857.925293 
	C218.616699,856.426270 173.723068,850.184326 131.950775,829.854614 
	C102.085617,815.319763 77.830910,794.762329 63.517948,763.964844 
	C52.267113,739.756226 49.873653,714.344360 53.683144,688.251648 
	C60.000675,644.980530 79.656265,607.338928 103.969780,571.841309 
	C132.561386,530.097778 166.962509,493.502533 204.551880,459.805573 
	C257.473175,412.364258 315.319611,371.755768 376.446930,335.660675 
	C380.432922,333.307007 383.711670,333.191437 387.619995,334.963318 
	C425.724854,352.238251 454.960052,378.786285 472.979248,416.919128 
	C483.177307,438.500519 487.747162,461.346283 487.761200,485.206390 
	C487.803131,556.369507 487.920990,627.532715 488.209717,698.695129 
	C488.228699,703.382263 486.849976,705.364624 482.401794,706.737671 
	C443.200745,718.837524 403.516296,728.889099 363.038055,735.699402 
	C357.528076,736.626465 357.255280,736.422607 357.260956,730.481567 
	C357.322693,665.983948 357.563080,601.485779 357.367340,536.988953 
	C357.313385,519.208923 357.139465,501.288086 354.959778,483.687042 
	C351.256927,453.786469 335.018646,431.646149 308.915710,416.669067 
	C306.331909,415.186646 304.353210,414.834381 301.705597,416.786255 
	C263.011078,445.312744 226.202789,476.028900 193.218750,511.084290 
	C165.141022,540.925232 139.761566,572.803955 122.340332,610.275940 
	C112.994667,630.377930 106.505470,651.207153 106.451088,673.738525 
	C106.373077,706.058594 120.918961,730.221497 147.219009,747.821411 
	C168.575134,762.112854 192.790329,768.843506 217.799591,772.845337 
	C247.030411,777.522522 276.491791,778.027771 305.971436,775.923950 
	C353.777618,772.512085 400.690674,763.787598 446.974091,751.512390 
	C533.067749,728.678711 614.901794,695.101379 693.698547,653.820496 
	C697.685730,651.731628 698.928955,649.226257 698.923218,644.820740 
	C698.801453,551.489258 698.832642,458.157501 698.849670,364.825806 
	C698.850342,361.328766 698.820862,357.815063 699.128418,354.337708 
	C700.127136,343.048279 710.083740,333.209015 721.384216,333.137024 
	C756.048828,332.916260 790.715881,333.091431 825.381165,332.937439 
	C830.384766,332.915222 829.502563,336.050903 829.502869,338.949524 
	C829.509766,412.948212 829.506226,486.946930 829.504456,560.945618 
	C829.504395,563.198547 829.504456,565.451538 829.504456,569.325378 
	C836.169861,564.400330 841.628052,560.471191 846.976807,556.398376 
	C884.569702,527.773804 919.971924,496.714111 951.348389,461.293152 
	C977.645447,431.606293 1001.168213,400.000336 1016.182617,362.871490 
	C1024.659790,341.908569 1029.704224,320.297394 1026.568481,297.482208 
	C1022.529114,268.091034 1005.718811,247.659515 980.711609,233.267746 
	C958.383484,220.417786 933.938538,213.635086 908.572693,211.198608 
	C886.734924,209.101028 864.694397,209.144730 842.750122,208.102051 
	C837.993408,207.876068 836.603455,209.565430 836.545166,214.411118 
	C836.147827,247.440048 810.219299,276.857574 777.281311,282.084717 
	C737.879089,288.337769 702.491699,263.726746 694.854797,224.759247 
	C688.353577,191.586334 706.854553,158.093582 738.783691,145.233795 
	C770.146484,132.602112 806.945923,144.082779 824.761902,172.765060 
	C828.392395,178.609787 832.113525,179.125320 838.150024,178.784805 
	C857.262085,177.706696 876.418152,176.980911 895.559143,176.937027 
	C931.885681,176.853714 967.703552,181.113693 1002.502625,191.978287 
	C1032.997314,201.499039 1060.819946,215.681076 1082.627563,239.807556 
	C1107.559326,267.390503 1117.179688,300.051514 1114.149048,336.686768 
	C1111.141479,373.042664 1097.384033,405.795532 1079.280029,436.886719 
	C1051.702148,484.247986 1015.771790,524.804688 976.053467,562.204651 
	C931.635742,604.029846 883.098816,640.527954 831.813354,673.433228 
	C760.205933,719.377136 684.596741,757.481567 605.398071,788.502991 
	C598.108948,791.358032 590.770386,794.086975 583.084290,796.997009 
z"/>
<path fill="#59595B" opacity="1.000000" stroke="none" 
	d="
M739.847778,999.140747 
	C717.186462,973.364502 703.087402,943.950928 700.337158,909.976807 
	C698.782471,890.771912 699.251770,871.392212 699.084045,852.088928 
	C698.904541,831.429260 699.141052,810.765991 698.964294,790.106262 
	C698.932312,786.363708 700.223999,784.455139 703.545959,782.901001 
	C744.768921,763.616089 784.858154,742.204590 823.696045,718.464661 
	C825.199585,717.545654 826.810608,716.802673 829.184875,715.547852 
	C829.334106,718.320984 829.526489,720.230896 829.526794,722.140808 
	C829.533691,771.790161 829.422668,821.439819 829.570374,871.088684 
	C829.615234,886.171387 832.085754,900.964661 837.593262,915.082703 
	C845.583130,935.563965 860.198730,950.206665 879.171997,960.609009 
	C887.475647,965.161682 896.271606,968.816650 904.846924,972.872986 
	C906.286438,973.553955 907.740845,974.203369 910.085266,975.278809 
	C906.815735,977.484802 904.398254,979.160828 901.936890,980.769714 
	C871.125366,1000.910034 840.274231,1020.990173 809.541321,1041.249756 
	C806.360535,1043.346558 803.713806,1043.634644 800.304810,1042.186768 
	C777.089844,1032.326782 757.195374,1017.836670 739.847778,999.140747 
z"/>
</svg>